name Run_500 02_newCOP3_v24.mot
datacolumns 19
datarows 176
range 2.52 2.695
DataType=double
version=3
OpenSimVersion=4.3-2021-08-27-4bc7ad9
endheader
time	R_ground_force_vx	R_ground_force_vy	R_ground_force_vz	R_ground_force_px	R_ground_force_py	R_ground_force_pz	L_ground_force_vx	L_ground_force_vy	L_ground_force_vz	L_ground_force_px	L_ground_force_py	L_ground_force_pz	R_ground_torque_x	R_ground_torque_y	R_ground_torque_z	L_ground_torque_x	L_ground_torque_y	L_ground_torque_z
2.52	149.381714	1416.636108	-50.875587	0.734905	0	-0.281725	0	0	0	0	0	0	0	-6.710592	0	0	0	0
2.521	156.015381	1401.628174	-49.666321	0.730358	0	-0.281744	0	0	0	0	0	0	0	-6.785188	0	0	0	0
2.522	162.452759	1386.097778	-48.626949	0.725822	0	-0.281767	0	0	0	0	0	0	0	-6.86079	0	0	0	0
2.523	168.679169	1370.055298	-47.729225	0.721297	0	-0.281795	0	0	0	0	0	0	0	-6.937224	0	0	0	0
2.524	174.680862	1353.512939	-46.941753	0.716787	0	-0.281827	0	0	0	0	0	0	0	-7.014258	0	0	0	0
2.525	180.444962	1336.484131	-46.231178	0.712292	0	-0.281863	0	0	0	0	0	0	0	-7.091603	0	0	0	0
2.526	185.959595	1318.983521	-45.563374	0.707815	0	-0.281903	0	0	0	0	0	0	0	-7.168913	0	0	0	0
2.527	191.213913	1301.026733	-44.904587	0.703356	0	-0.281946	0	0	0	0	0	0	0	-7.245782	0	0	0	0
2.528	196.198074	1282.630005	-44.222481	0.698918	0	-0.281993	0	0	0	0	0	0	0	-7.321745	0	0	0	0
2.529	200.90332	1263.809937	-43.487083	0.694501	0	-0.282042	0	0	0	0	0	0	0	-7.39628	0	0	0	0
2.53	205.322037	1244.583496	-42.671585	0.690107	0	-0.282093	0	0	0	0	0	0	0	-7.468809	0	0	0	0
2.531	209.447739	1224.967529	-41.752987	0.685736	0	-0.282147	0	0	0	0	0	0	0	-7.538701	0	0	0	0
2.532	213.275101	1204.978516	-40.712578	0.681389	0	-0.282202	0	0	0	0	0	0	0	-7.605276	0	0	0	0
2.533	216.800034	1184.633057	-39.536255	0.677068	0	-0.282259	0	0	0	0	0	0	0	-7.667812	0	0	0	0
2.534	220.019577	1163.947021	-38.214672	0.672771	0	-0.282317	0	0	0	0	0	0	0	-7.725546	0	0	0	0
2.535	222.931946	1142.936279	-36.74324	0.6685	0	-0.282375	0	0	0	0	0	0	0	-7.777688	0	0	0	0
2.536	225.536377	1121.616211	-35.121983	0.664255	0	-0.282434	0	0	0	0	0	0	0	-7.823422	0	0	0	0
2.537	227.83313	1100.002197	-33.355267	0.660034	0	-0.282492	0	0	0	0	0	0	0	-7.861919	0	0	0	0
2.538	229.823257	1078.109863	-31.451445	0.6558389999999999	0	-0.282551	0	0	0	0	0	0	0	-7.892347	0	0	0	0
2.539	231.508469	1055.95459	-29.422392	0.651668	0	-0.282608	0	0	0	0	0	0	0	-7.913877	0	0	0	0
2.54	232.891022	1033.552734	-27.282999	0.64752	0	-0.282664	0	0	0	0	0	0	0	-7.925699	0	0	0	0
2.541	233.97348	1010.920959	-25.050615	0.6433950000000001	0	-0.282719	0	0	0	0	0	0	0	-7.927032	0	0	0	0
2.542	234.758575	988.077026	-22.744476	0.6392910000000001	0	-0.282772	0	0	0	0	0	0	0	-7.917135	0	0	0	0
2.543	235.249146	965.039429	-20.385134	0.635208	0	-0.282823	0	0	0	0	0	0	0	-7.89532	0	0	0	0
2.544	235.447983	941.82782	-17.993883	0.631143	0	-0.282871	0	0	0	0	0	0	0	-7.860964	0	0	0	0
2.545	235.357849	918.462891	-15.592231	0.627094	0	-0.282916	0	0	0	0	0	0	0	-7.813522	0	0	0	0
2.546	234.981552	894.966492	-13.201406	0.623061	0	-0.282958	0	0	0	0	0	0	0	-7.752538	0	0	0	0
2.547	234.322037	871.36145	-10.841906	0.61904	0	-0.282997	0	0	0	0	0	0	0	-7.677657	0	0	0	0
2.548	233.382553	847.671631	-8.533117000000001	0.615029	0	-0.283032	0	0	0	0	0	0	0	-7.588636	0	0	0	0
2.549	232.166855	823.92157	-6.292986	0.611026	0	-0.283062	0	0	0	0	0	0	0	-7.485353	0	0	0	0
2.55	230.679459	800.136475	-4.137769	0.607028	0	-0.283088	0	0	0	0	0	0	0	-7.367817	0	0	0	0
2.551	228.925919	776.342163	-2.081849	0.603031	0	-0.283109	0	0	0	0	0	0	0	-7.236172	0	0	0	0
2.552	226.912964	752.564453	-0.137626	0.599032	0	-0.283124	0	0	0	0	0	0	0	-7.090709	0	0	0	0
2.553	224.648743	728.829529	1.684521	0.595028	0	-0.283133	0	0	0	0	0	0	0	-6.931863	0	0	0	0
2.554	222.142914	705.163147	3.376211	0.591015	0	-0.283136	0	0	0	0	0	0	0	-6.760221	0	0	0	0
2.555	219.406647	681.590881	4.930972	0.586988	0	-0.283131	0	0	0	0	0	0	0	-6.57652	0	0	0	0
2.556	216.452591	658.137817	6.344108	0.582942	0	-0.283119	0	0	0	0	0	0	0	-6.381645	0	0	0	0
2.557	213.294632	634.828186	7.61252	0.578874	0	-0.283098	0	0	0	0	0	0	0	-6.176624	0	0	0	0
2.558	209.947708	611.685547	8.734508999999999	0.574777	0	-0.283068	0	0	0	0	0	0	0	-5.962624	0	0	0	0
2.559	206.427414	588.732666	9.709553	0.570645	0	-0.283028	0	0	0	0	0	0	0	-5.74094	0	0	0	0
2.56	202.749634	565.991272	10.538097	0.566473	0	-0.282977	0	0	0	0	0	0	0	-5.512984	0	0	0	0
2.561	198.930115	543.4823	11.221349	0.562254	0	-0.282913	0	0	0	0	0	0	0	-5.280274	0	0	0	0
2.562	194.984024	521.225891	11.761104	0.55798	0	-0.282835	0	0	0	0	0	0	0	-5.044416	0	0	0	0
2.563	190.925598	499.241547	12.159601	0.553642	0	-0.282741	0	0	0	0	0	0	0	-4.807086	0	0	0	0
2.564	186.767731	477.548187	12.419436	0.549234	0	-0.28263	0	0	0	0	0	0	0	-4.570013	0	0	0	0
2.565	182.521774	456.164581	12.543506	0.544744	0	-0.2825	0	0	0	0	0	0	0	-4.334954	0	0	0	0
2.566	178.197418	435.109436	12.535011	0.540162	0	-0.282348	0	0	0	0	0	0	0	-4.103675	0	0	0	0
2.567	173.80249	414.401642	12.397514	0.535478	0	-0.28217	0	0	0	0	0	0	0	-3.877926	0	0	0	0
2.568	169.343185	394.060486	12.135026	0.530679	0	-0.281964	0	0	0	0	0	0	0	-3.659415	0	0	0	0
2.569	164.824097	374.105896	11.752133	0.5257500000000001	0	-0.281726	0	0	0	0	0	0	0	-3.449785	0	0	0	0
2.57	160.248505	354.558441	11.254156	0.520676	0	-0.28145	0	0	0	0	0	0	0	-3.250588	0	0	0	0
2.571	155.618683	335.439545	10.647297	0.515441	0	-0.281131	0	0	0	0	0	0	0	-3.063263	0	0	0	0
2.572	150.936279	316.771301	9.938807000000001	0.510026	0	-0.280762	0	0	0	0	0	0	0	-2.889109	0	0	0	0
2.573	146.202667	298.576447	9.137117999999999	0.504409	0	-0.280335	0	0	0	0	0	0	0	-2.729264	0	0	0	0
2.574	141.419357	280.878082	8.251951	0.498566	0	-0.27984	0	0	0	0	0	0	0	-2.584687	0	0	0	0
2.575	136.588318	263.699524	7.294379	0.49247	0	-0.279266	0	0	0	0	0	0	0	-2.456139	0	0	0	0
2.576	131.712296	247.063721	6.276842	0.486089	0	-0.278597	0	0	0	0	0	0	0	-2.344167	0	0	0	0
2.577	126.795059	230.992966	5.213097	0.479389	0	-0.277816	0	0	0	0	0	0	0	-2.249093	0	0	0	0
2.578	121.84153	215.508438	4.118117	0.472326	0	-0.276902	0	0	0	0	0	0	0	-2.171007	0	0	0	0
2.579	116.85791	200.629669	3.007923	0.464852	0	-0.275829	0	0	0	0	0	0	0	-2.109762	0	0	0	0
2.58	111.851692	186.374069	1.899365	0.456909	0	-0.274562	0	0	0	0	0	0	0	-2.064973	0	0	0	0
2.581	106.831596	172.756592	0.809856	0.448428	0	-0.273061	0	0	0	0	0	0	0	-2.036026	0	0	0	0
2.582	101.807503	159.78923	-0.242943	0.439323	0	-0.271273	0	0	0	0	0	0	0	-2.022081	0	0	0	0
2.583	96.790268	147.48082	-1.241457	0.42949	0	-0.26913	0	0	0	0	0	0	0	-2.022094	0	0	0	0
2.584	91.79160299999999	135.836731	-2.168556	0.4188	0	-0.266543	0	0	0	0	0	0	0	-2.034829	0	0	0	0
2.585	86.823868	124.858765	-3.007923	0.407086	0	-0.263396	0	0	0	0	0	0	0	-2.058887	0	0	0	0
2.586	81.899902	114.545135	-3.744414	0.394133	0	-0.259533	0	0	0	0	0	0	0	-2.092731	0	0	0	0
2.587	77.03284499999999	104.890427	-4.364412	0.379653	0	-0.254739	0	0	0	0	0	0	0	-2.134719	0	0	0	0
2.588	72.23595400000001	95.88578800000001	-4.856153	0.363258	0	-0.248714	0	0	0	0	0	0	0	-2.18314	0	0	0	0
2.589	67.522453	87.519051	-5.210021	0.344395	0	-0.241021	0	0	0	0	0	0	0	-2.236249	0	0	0	0
2.59	62.90535	79.774956	-5.418809	0.322261	0	-0.231012	0	0	0	0	0	0	0	-2.292313	0	0	0	0
2.591	58.39732	72.635445	-5.477933	0.295628	0	-0.217673	0	0	0	0	0	0	0	-2.349647	0	0	0	0
2.592	54.01054	66.07991800000001	-5.385594	0.262506	0	-0.199336	0	0	0	0	0	0	0	-2.406659	0	0	0	0
2.593	49.756565	60.085503	-5.142881	0.219435	0	-0.173057	0	0	0	0	0	0	0	-2.461889	0	0	0	0
2.594	45.646179	54.627392	-4.753828	0.159783	0	-0.133128	0	0	0	0	0	0	0	-2.514044	0	0	0	0
2.595	0	0	0	0	0	0	0	0	0	0	0	0	0	0	0	0	0	0
2.596	0	0	0	0	0	0	0	0	0	0	0	0	0	0	0	0	0	0
2.597	0	0	0	0	0	0	0	0	0	0	0	0	0	0	0	0	0	0
2.598	0	0	0	0	0	0	0	0	0	0	0	0	0	0	0	0	0	0
2.599	0	0	0	0	0	0	0	0	0	0	0	0	0	0	0	0	0	0
2.6	0	0	0	0	0	0	0	0	0	0	0	0	0	0	0	0	0	0
2.601	0	0	0	0	0	0	0	0	0	0	0	0	0	0	0	0	0	0
2.602	0	0	0	0	0	0	0	0	0	0	0	0	0	0	0	0	0	0
2.603	0	0	0	0	0	0	0	0	0	0	0	0	0	0	0	0	0	0
2.604	0	0	0	0	0	0	0	0	0	0	0	0	0	0	0	0	0	0
2.605	0	0	0	0	0	0	0	0	0	0	0	0	0	0	0	0	0	0
2.606	0	0	0	0	0	0	0	0	0	0	0	0	0	0	0	0	0	0
2.607	0	0	0	0	0	0	0	0	0	0	0	0	0	0	0	0	0	0
2.608	0	0	0	0	0	0	0	0	0	0	0	0	0	0	0	0	0	0
2.609	0	0	0	0	0	0	0	0	0	0	0	0	0	0	0	0	0	0
2.61	0	0	0	0	0	0	0	0	0	0	0	0	0	0	0	0	0	0
2.611	0	0	0	0	0	0	0	0	0	0	0	0	0	0	0	0	0	0
2.612	0	0	0	0	0	0	0	0	0	0	0	0	0	0	0	0	0	0
2.613	0	0	0	0	0	0	0	0	0	0	0	0	0	0	0	0	0	0
2.614	0	0	0	0	0	0	0	0	0	0	0	0	0	0	0	0	0	0
2.615	0	0	0	0	0	0	0	0	0	0	0	0	0	0	0	0	0	0
2.616	0	0	0	0	0	0	0	0	0	0	0	0	0	0	0	0	0	0
2.617	0	0	0	0	0	0	0	0	0	0	0	0	0	0	0	0	0	0
2.618	0	0	0	0	0	0	0	0	0	0	0	0	0	0	0	0	0	0
2.619	0	0	0	0	0	0	0	0	0	0	0	0	0	0	0	0	0	0
2.62	0	0	0	0	0	0	0	0	0	0	0	0	0	0	0	0	0	0
2.621	0	0	0	0	0	0	0	0	0	0	0	0	0	0	0	0	0	0
2.622	0	0	0	0	0	0	0	0	0	0	0	0	0	0	0	0	0	0
2.623	0	0	0	0	0	0	0	0	0	0	0	0	0	0	0	0	0	0
2.624	0	0	0	0	0	0	0	0	0	0	0	0	0	0	0	0	0	0
2.625	0	0	0	0	0	0	0	0	0	0	0	0	0	0	0	0	0	0
2.626	0	0	0	0	0	0	0	0	0	0	0	0	0	0	0	0	0	0
2.627	0	0	0	0	0	0	0	0	0	0	0	0	0	0	0	0	0	0
2.628	0	0	0	0	0	0	0	0	0	0	0	0	0	0	0	0	0	0
2.629	0	0	0	0	0	0	0	0	0	0	0	0	0	0	0	0	0	0
2.63	0	0	0	0	0	0	0	0	0	0	0	0	0	0	0	0	0	0
2.631	0	0	0	0	0	0	0	0	0	0	0	0	0	0	0	0	0	0
2.632	0	0	0	0	0	0	0	0	0	0	0	0	0	0	0	0	0	0
2.633	0	0	0	0	0	0	0	0	0	0	0	0	0	0	0	0	0	0
2.634	0	0	0	0	0	0	0	0	0	0	0	0	0	0	0	0	0	0
2.635	0	0	0	0	0	0	0	0	0	0	0	0	0	0	0	0	0	0
2.636	0	0	0	0	0	0	0	0	0	0	0	0	0	0	0	0	0	0
2.637	0	0	0	0	0	0	0	0	0	0	0	0	0	0	0	0	0	0
2.638	0	0	0	0	0	0	0	0	0	0	0	0	0	0	0	0	0	0
2.639	0	0	0	0	0	0	0	0	0	0	0	0	0	0	0	0	0	0
2.64	0	0	0	0	0	0	0	0	0	0	0	0	0	0	0	0	0	0
2.641	0	0	0	0	0	0	0	0	0	0	0	0	0	0	0	0	0	0
2.642	0	0	0	0	0	0	0	0	0	0	0	0	0	0	0	0	0	0
2.643	0	0	0	0	0	0	0	0	0	0	0	0	0	0	0	0	0	0
2.644	0	0	0	0	0	0	0	0	0	0	0	0	0	0	0	0	0	0
2.645	0	0	0	0	0	0	0	0	0	0	0	0	0	0	0	0	0	0
2.646	0	0	0	0	0	0	0	0	0	0	0	0	0	0	0	0	0	0
2.647	0	0	0	0	0	0	0	0	0	0	0	0	0	0	0	0	0	0
2.648	0	0	0	0	0	0	0	0	0	0	0	0	0	0	0	0	0	0
2.649	0	0	0	0	0	0	0	0	0	0	0	0	0	0	0	0	0	0
2.65	0	0	0	0	0	0	0	0	0	0	0	0	0	0	0	0	0	0
2.651	0	0	0	0	0	0	0	0	0	0	0	0	0	0	0	0	0	0
2.652	0	0	0	0	0	0	0	0	0	0	0	0	0	0	0	0	0	0
2.653	0	0	0	0	0	0	0	0	0	0	0	0	0	0	0	0	0	0
2.654	0	0	0	0	0	0	0	0	0	0	0	0	0	0	0	0	0	0
2.655	0	0	0	0	0	0	0	0	0	0	0	0	0	0	0	0	0	0
2.656	0	0	0	0	0	0	0	0	0	0	0	0	0	0	0	0	0	0
2.657	0	0	0	0	0	0	0	0	0	0	0	0	0	0	0	0	0	0
2.658	0	0	0	0	0	0	0	0	0	0	0	0	0	0	0	0	0	0
2.659	0	0	0	0	0	0	0	0	0	0	0	0	0	0	0	0	0	0
2.66	0	0	0	0	0	0	0	0	0	0	0	0	0	0	0	0	0	0
2.661	0	0	0	0	0	0	0	0	0	0	0	0	0	0	0	0	0	0
2.662	0	0	0	0	0	0	0	0	0	0	0	0	0	0	0	0	0	0
2.663	0	0	0	0	0	0	0	0	0	0	0	0	0	0	0	0	0	0
2.664	0	0	0	0	0	0	0	0	0	0	0	0	0	0	0	0	0	0
2.665	0	0	0	0	0	0	0	0	0	0	0	0	0	0	0	0	0	0
2.666	0	0	0	0	0	0	0	0	0	0	0	0	0	0	0	0	0	0
2.667	0	0	0	0	0	0	0	0	0	0	0	0	0	0	0	0	0	0
2.668	0	0	0	0	0	0	0	0	0	0	0	0	0	0	0	0	0	0
2.669	0	0	0	0	0	0	0	0	0	0	0	0	0	0	0	0	0	0
2.67	0	0	0	0	0	0	0	0	0	0	0	0	0	0	0	0	0	0
2.671	0	0	0	0	0	0	0	0	0	0	0	0	0	0	0	0	0	0
2.672	0	0	0	0	0	0	0	0	0	0	0	0	0	0	0	0	0	0
2.673	0	0	0	0	0	0	0	0	0	0	0	0	0	0	0	0	0	0
2.674	0	0	0	0	0	0	0	0	0	0	0	0	0	0	0	0	0	0
2.675	0	0	0	0	0	0	0	0	0	0	0	0	0	0	0	0	0	0
2.676	0	0	0	0	0	0	0	0	0	0	0	0	0	0	0	0	0	0
2.677	0	0	0	0	0	0	0	0	0	0	0	0	0	0	0	0	0	0
2.678	0	0	0	0	0	0	0	0	0	0	0	0	0	0	0	0	0	0
2.679	0	0	0	0	0	0	0	0	0	0	0	0	0	0	0	0	0	0
2.68	0	0	0	0	0	0	-16.854231	51.022255	-9.847714	0.945044	0	-0.383476	0	0	0	-0	1.649166	-0
2.681	0	0	0	0	0	0	-18.461796	57.574852	-10.987228	0.2332	0	-0.353625	0	0	0	-0	1.312313	-0
2.682	0	0	0	0	0	0	-20.208986	64.924583	-12.08725	1.313129	0	-0.396158	0	0	0	-0	0.955479	-0
2.683	0	0	0	0	0	0	-22.08897	73.12818900000001	-13.13902	1.18969	0	-0.390204	0	0	0	-0	0.584032	-0
2.684	0	0	0	0	0	0	-24.091465	82.24174499999999	-14.133399	1.154641	0	-0.387883	0	0	0	-0	0.203402	-0
2.685	0	0	0	0	0	0	-26.202854	92.32002300000001	-15.06075	1.138087	0	-0.386369	0	0	0	0	-0.181016	0
2.686	0	0	0	0	0	0	-28.406427	103.415741	-15.910851	1.128441	0	-0.38519	0	0	0	0	-0.563939	0
2.687	0	0	0	0	0	0	-30.682747	115.578819	-16.672834	1.122111	0	-0.384197	0	0	0	0	-0.9402779999999999	0
2.688	0	0	0	0	0	0	-33.010159	128.855576	-17.335155	1.11762	0	-0.383326	0	0	0	0	-1.305205	0
2.689	0	0	0	0	0	0	-35.36541	143.287888	-17.885612	1.114248	0	-0.382545	0	0	0	0	-1.654221	0
2.69	0	0	0	0	0	0	-37.724396	158.912354	-18.311403	1.111603	0	-0.381834	0	0	0	0	-1.983207	0
2.691	0	0	0	0	0	0	-40.062984	175.75943	-18.599222	1.10945	0	-0.381183	0	0	0	0	-2.288473	0
2.692	0	0	0	0	0	0	-42.357941	193.852646	-18.735428	1.107646	0	-0.380581	0	0	0	0	-2.566797	0
2.693	0	0	0	0	0	0	-44.587894	213.207687	-18.706224	1.106092	0	-0.380024	0	0	0	0	-2.815448	0
2.694	0	0	0	0	0	0	-46.734314	233.831665	-18.497917	1.104722	0	-0.379506	0	0	0	0	-3.032212	0
2.695	0	0	0	0	0	0	-48.782501	255.722275	-18.097176	1.103491	0	-0.379024	0	0	0	0	-3.2154	0
